<mxfile host="app.diagrams.net" modified="2021-03-28T04:23:59.257Z" agent="5.0 (Macintosh; Intel Mac OS X 11_2_3) AppleWebKit/537.36 (KHTML, like Gecko) Chrome/89.0.4389.90 Safari/537.36" etag="zuZ86k9D3YwGwmTWCeIp" version="14.5.3" type="github">
  <diagram id="T4ArB0UmGZZgt-yyAWHZ" name="Page-1">
    <mxGraphModel dx="1426" dy="769" grid="1" gridSize="10" guides="1" tooltips="1" connect="1" arrows="1" fold="1" page="1" pageScale="1" pageWidth="827" pageHeight="1169" math="0" shadow="1">
      <root>
        <mxCell id="0" />
        <mxCell id="1" parent="0" />
        <mxCell id="9P-Vbe7PK4MzcDP2ter5-12" value="" style="edgeStyle=orthogonalEdgeStyle;rounded=0;orthogonalLoop=1;jettySize=auto;html=1;" edge="1" parent="1" source="9P-Vbe7PK4MzcDP2ter5-2" target="9P-Vbe7PK4MzcDP2ter5-3">
          <mxGeometry relative="1" as="geometry" />
        </mxCell>
        <mxCell id="9P-Vbe7PK4MzcDP2ter5-2" value="launch" style="rounded=0;whiteSpace=wrap;html=1;" vertex="1" parent="1">
          <mxGeometry x="60" y="60" width="120" height="60" as="geometry" />
        </mxCell>
        <mxCell id="9P-Vbe7PK4MzcDP2ter5-13" value="" style="edgeStyle=orthogonalEdgeStyle;rounded=0;orthogonalLoop=1;jettySize=auto;html=1;" edge="1" parent="1" source="9P-Vbe7PK4MzcDP2ter5-3" target="9P-Vbe7PK4MzcDP2ter5-4">
          <mxGeometry relative="1" as="geometry" />
        </mxCell>
        <mxCell id="9P-Vbe7PK4MzcDP2ter5-3" value="Init gmae around&lt;br&gt;board&lt;br&gt;snake&lt;br&gt;food" style="rounded=0;whiteSpace=wrap;html=1;" vertex="1" parent="1">
          <mxGeometry x="210" y="60" width="120" height="60" as="geometry" />
        </mxCell>
        <mxCell id="9P-Vbe7PK4MzcDP2ter5-14" value="" style="edgeStyle=orthogonalEdgeStyle;rounded=0;orthogonalLoop=1;jettySize=auto;html=1;" edge="1" parent="1" source="9P-Vbe7PK4MzcDP2ter5-4" target="9P-Vbe7PK4MzcDP2ter5-6">
          <mxGeometry relative="1" as="geometry" />
        </mxCell>
        <mxCell id="9P-Vbe7PK4MzcDP2ter5-4" value="Start" style="rounded=0;whiteSpace=wrap;html=1;" vertex="1" parent="1">
          <mxGeometry x="360" y="60" width="120" height="60" as="geometry" />
        </mxCell>
        <mxCell id="9P-Vbe7PK4MzcDP2ter5-15" value="" style="edgeStyle=orthogonalEdgeStyle;rounded=0;orthogonalLoop=1;jettySize=auto;html=1;" edge="1" parent="1" source="9P-Vbe7PK4MzcDP2ter5-6" target="9P-Vbe7PK4MzcDP2ter5-8">
          <mxGeometry relative="1" as="geometry" />
        </mxCell>
        <mxCell id="9P-Vbe7PK4MzcDP2ter5-16" style="edgeStyle=orthogonalEdgeStyle;rounded=0;orthogonalLoop=1;jettySize=auto;html=1;exitX=0.5;exitY=1;exitDx=0;exitDy=0;entryX=0.5;entryY=0;entryDx=0;entryDy=0;" edge="1" parent="1" source="9P-Vbe7PK4MzcDP2ter5-6" target="9P-Vbe7PK4MzcDP2ter5-7">
          <mxGeometry relative="1" as="geometry" />
        </mxCell>
        <mxCell id="9P-Vbe7PK4MzcDP2ter5-6" value="Snake move&lt;br&gt;&lt;span style=&quot;color: rgb(51 , 51 , 51) ; font-family: &amp;#34;open sans&amp;#34; , &amp;#34;clear sans&amp;#34; , &amp;#34;helvetica neue&amp;#34; , &amp;#34;helvetica&amp;#34; , &amp;#34;arial&amp;#34; , sans-serif ; font-size: 16px ; text-align: left ; background-color: rgb(255 , 255 , 255)&quot;&gt;(⬆⬅⬇➡)&lt;/span&gt;" style="rounded=0;whiteSpace=wrap;html=1;" vertex="1" parent="1">
          <mxGeometry x="360" y="140" width="120" height="60" as="geometry" />
        </mxCell>
        <mxCell id="9P-Vbe7PK4MzcDP2ter5-17" value="" style="edgeStyle=orthogonalEdgeStyle;rounded=0;orthogonalLoop=1;jettySize=auto;html=1;" edge="1" parent="1" source="9P-Vbe7PK4MzcDP2ter5-7" target="9P-Vbe7PK4MzcDP2ter5-10">
          <mxGeometry relative="1" as="geometry" />
        </mxCell>
        <mxCell id="9P-Vbe7PK4MzcDP2ter5-7" value="Eat food" style="rounded=0;whiteSpace=wrap;html=1;" vertex="1" parent="1">
          <mxGeometry x="280" y="250" width="120" height="60" as="geometry" />
        </mxCell>
        <mxCell id="9P-Vbe7PK4MzcDP2ter5-18" value="" style="edgeStyle=orthogonalEdgeStyle;rounded=0;orthogonalLoop=1;jettySize=auto;html=1;" edge="1" parent="1" source="9P-Vbe7PK4MzcDP2ter5-8" target="9P-Vbe7PK4MzcDP2ter5-11">
          <mxGeometry relative="1" as="geometry" />
        </mxCell>
        <mxCell id="9P-Vbe7PK4MzcDP2ter5-8" value="Touches wall or itself body" style="rounded=0;whiteSpace=wrap;html=1;" vertex="1" parent="1">
          <mxGeometry x="430" y="250" width="170" height="60" as="geometry" />
        </mxCell>
        <mxCell id="9P-Vbe7PK4MzcDP2ter5-23" value="" style="edgeStyle=orthogonalEdgeStyle;rounded=0;orthogonalLoop=1;jettySize=auto;html=1;" edge="1" parent="1" source="9P-Vbe7PK4MzcDP2ter5-10" target="9P-Vbe7PK4MzcDP2ter5-22">
          <mxGeometry relative="1" as="geometry" />
        </mxCell>
        <mxCell id="9P-Vbe7PK4MzcDP2ter5-10" value="grow body" style="rounded=0;whiteSpace=wrap;html=1;" vertex="1" parent="1">
          <mxGeometry x="280" y="340" width="120" height="60" as="geometry" />
        </mxCell>
        <mxCell id="9P-Vbe7PK4MzcDP2ter5-20" style="edgeStyle=orthogonalEdgeStyle;rounded=0;orthogonalLoop=1;jettySize=auto;html=1;exitX=1;exitY=0.5;exitDx=0;exitDy=0;entryX=1;entryY=0.5;entryDx=0;entryDy=0;" edge="1" parent="1" source="9P-Vbe7PK4MzcDP2ter5-11" target="9P-Vbe7PK4MzcDP2ter5-4">
          <mxGeometry relative="1" as="geometry">
            <Array as="points">
              <mxPoint x="650" y="370" />
              <mxPoint x="650" y="90" />
            </Array>
          </mxGeometry>
        </mxCell>
        <mxCell id="9P-Vbe7PK4MzcDP2ter5-11" value="Gnae over" style="rounded=0;whiteSpace=wrap;html=1;" vertex="1" parent="1">
          <mxGeometry x="455" y="340" width="120" height="60" as="geometry" />
        </mxCell>
        <mxCell id="9P-Vbe7PK4MzcDP2ter5-25" value="" style="edgeStyle=orthogonalEdgeStyle;rounded=0;orthogonalLoop=1;jettySize=auto;html=1;" edge="1" parent="1" source="9P-Vbe7PK4MzcDP2ter5-22" target="9P-Vbe7PK4MzcDP2ter5-24">
          <mxGeometry relative="1" as="geometry" />
        </mxCell>
        <mxCell id="9P-Vbe7PK4MzcDP2ter5-28" style="edgeStyle=orthogonalEdgeStyle;rounded=0;orthogonalLoop=1;jettySize=auto;html=1;exitX=0;exitY=0.5;exitDx=0;exitDy=0;entryX=0;entryY=0.5;entryDx=0;entryDy=0;" edge="1" parent="1" source="9P-Vbe7PK4MzcDP2ter5-22" target="9P-Vbe7PK4MzcDP2ter5-6">
          <mxGeometry relative="1" as="geometry" />
        </mxCell>
        <mxCell id="9P-Vbe7PK4MzcDP2ter5-22" value="&lt;span&gt;is fill game board&lt;/span&gt;" style="rhombus;whiteSpace=wrap;html=1;" vertex="1" parent="1">
          <mxGeometry x="260" y="440" width="160" height="80" as="geometry" />
        </mxCell>
        <mxCell id="9P-Vbe7PK4MzcDP2ter5-24" value="Win" style="whiteSpace=wrap;html=1;" vertex="1" parent="1">
          <mxGeometry x="280" y="585" width="120" height="60" as="geometry" />
        </mxCell>
        <mxCell id="9P-Vbe7PK4MzcDP2ter5-26" value="true" style="text;html=1;align=center;verticalAlign=middle;resizable=0;points=[];autosize=1;" vertex="1" parent="1">
          <mxGeometry x="290" y="540" width="40" height="20" as="geometry" />
        </mxCell>
        <mxCell id="9P-Vbe7PK4MzcDP2ter5-29" value="false" style="text;html=1;align=center;verticalAlign=middle;resizable=0;points=[];autosize=1;" vertex="1" parent="1">
          <mxGeometry x="190" y="460" width="40" height="20" as="geometry" />
        </mxCell>
      </root>
    </mxGraphModel>
  </diagram>
</mxfile>
